<svg xmlns="http://www.w3.org/2000/svg" viewBox="0 0 39.89 39.89"><g id="a5803df4-50d9-45be-a315-69c275f51cf3" data-name="Calque 2"><g id="e9f48417-dfd0-48bf-80c2-86446a73d8eb" data-name="Calque 1"><path d="M23.44,4.35a3.56,3.56,0,0,1,5,5L20,17.84A8.33,8.33,0,0,1,20.8,7Z" fill="#4f9e91" fill-rule="evenodd"/><path d="M35.54,23.44a3.56,3.56,0,0,1-5,5L22.05,20a8.32,8.32,0,0,1,10.84.8Z" fill="#ebe1c5" fill-rule="evenodd"/><path d="M16.45,35.54a3.56,3.56,0,0,1-5-5l8.46-8.46a8.31,8.31,0,0,1-.79,10.84Z" fill="#ebcc6e" fill-rule="evenodd"/><path d="M4.35,16.45a3.56,3.56,0,0,1,5-5l8.46,8.46A8.32,8.32,0,0,1,7,19.09Z" fill="#ed834e" fill-rule="evenodd"/><path d="M21.55,34.5a11.14,11.14,0,0,0,2.85-8l4.07,4.06,0,0v2.9a3.56,3.56,0,0,1-6.95,1.06Z" fill="#ed834e" fill-rule="evenodd"/><path d="M5.39,21.55a11.11,11.11,0,0,0,8.05,2.85L9.38,28.47l0,0H6.44a3.56,3.56,0,0,1-1.05-6.95Z" fill="#4f9e91" fill-rule="evenodd"/><path d="M34.5,18.34a11.2,11.2,0,0,0-8-2.86l4.06-4.06,0,0h2.9a3.56,3.56,0,0,1,1.06,7Z" fill="#ebcc6e" fill-rule="evenodd"/><path d="M18.34,5.39a11.17,11.17,0,0,0-2.86,8.05L11.42,9.38l0,0V6.44a3.56,3.56,0,0,1,7-1.05Z" fill="#ebe1c5" fill-rule="evenodd"/><path d="M14.94,0A6.44,6.44,0,0,0,8.5,6.44V7.7A6.44,6.44,0,0,0,2.31,18.49l.88.89a6.45,6.45,0,0,0,3.25,12H7.7a6.44,6.44,0,0,0,10.79,6.19l2.64-2.64a11.14,11.14,0,0,0,3.27-8.49l4.07,4.06a6.44,6.44,0,0,0,9.11-9.11l-.89-.89a6.44,6.44,0,0,0-3.25-12H32.19A6.44,6.44,0,0,0,21.4,2.31L18.75,5a11.2,11.2,0,0,0-3.27,8.49L11.42,9.38l0,0V6.44a3.56,3.56,0,0,1,7-1.05c.13-.15.27-.3.41-.44l1.76-1.76A6.44,6.44,0,0,0,14.94,0Zm15.6,11.39,0,0-4.06,4.06a11.2,11.2,0,0,1,8.05,2.86,3.56,3.56,0,0,0-1.06-6.95ZM9.35,28.5l0,0,4.06-4.07a11.11,11.11,0,0,1-8-2.85,3.56,3.56,0,0,0,1.05,7Zm-4.07-7L5,21.13H5ZM24.94,39.89a6.45,6.45,0,0,1-5.56-3.2l1.75-1.75c.15-.15.29-.29.42-.44a3.56,3.56,0,0,0,7-1.06v-2.9a6.44,6.44,0,0,0,2.89,1.65v1.25A6.45,6.45,0,0,1,24.94,39.89ZM28.47,4.35a3.55,3.55,0,0,0-5,0L20.8,7A8.33,8.33,0,0,0,20,17.84l8.47-8.46A3.57,3.57,0,0,0,28.47,4.35Zm7.07,24.12a3.57,3.57,0,0,0,0-5L32.89,20.8A8.32,8.32,0,0,0,22.05,20l8.46,8.47A3.57,3.57,0,0,0,35.54,28.47ZM16.45,35.54a3.56,3.56,0,0,1-5-5l8.46-8.46a8.31,8.31,0,0,1-.79,10.84ZM4.35,11.42a3.55,3.55,0,0,0,0,5L7,19.09a8.32,8.32,0,0,0,10.85.79L9.38,11.42A3.55,3.55,0,0,0,4.35,11.42Z" fill="#2b2e3a" fill-rule="evenodd"/></g></g></svg>