<svg xmlns="http://www.w3.org/2000/svg" viewBox="0 0 143.52 39.89"><g id="bbad232d-4ac1-4faa-9472-f07b47e90399" data-name="Calque 2"><g id="a4864592-61df-4ece-9517-768db87acca1" data-name="Calque 1"><path d="M71.14,4.35a3.56,3.56,0,0,1,5,5l-8.46,8.46A8.32,8.32,0,0,1,68.5,7Z" fill="#4f9e91" fill-rule="evenodd"/><path d="M83.24,23.44a3.56,3.56,0,0,1-5,5L69.75,20a8.33,8.33,0,0,1,10.85.8Z" fill="#ebe1c5" fill-rule="evenodd"/><path d="M64.15,35.54a3.56,3.56,0,0,1-5-5l8.46-8.46a8.31,8.31,0,0,1-.79,10.84Z" fill="#ebcc6e" fill-rule="evenodd"/><path d="M52.05,16.45a3.56,3.56,0,0,1,5-5l8.46,8.46a8.31,8.31,0,0,1-10.84-.79Z" fill="#ed834e" fill-rule="evenodd"/><path d="M69.25,34.5a11.2,11.2,0,0,0,2.86-8l4.06,4.06,0,0v2.9a3.56,3.56,0,0,1-7,1.06Z" fill="#ed834e" fill-rule="evenodd"/><path d="M53.09,21.55a11.14,11.14,0,0,0,8,2.85l-4.06,4.07,0,0h-2.9a3.56,3.56,0,0,1-1.06-6.95Z" fill="#4f9e91" fill-rule="evenodd"/><path d="M82.2,18.34a11.17,11.17,0,0,0-8-2.86l4.06-4.06,0,0h2.9a3.56,3.56,0,0,1,1.06,7Z" fill="#ebcc6e" fill-rule="evenodd"/><path d="M66,5.39a11.11,11.11,0,0,0-2.85,8.05L59.12,9.38l0,0V6.44a3.56,3.56,0,0,1,7-1.05Z" fill="#ebe1c5" fill-rule="evenodd"/><path d="M62.65,0A6.45,6.45,0,0,0,56.2,6.44V7.7A6.44,6.44,0,0,0,50,18.49l.89.89a6.44,6.44,0,0,0,3.25,12H55.4a6.44,6.44,0,0,0,10.79,6.19l2.65-2.64a11.22,11.22,0,0,0,3.27-8.49l4.06,4.06a6.44,6.44,0,0,0,9.11-9.11l-.88-.89a6.45,6.45,0,0,0-3.26-12H79.89A6.44,6.44,0,0,0,69.1,2.31L66.46,5a11.13,11.13,0,0,0-3.27,8.49L59.12,9.38l0,0V6.44a3.56,3.56,0,0,1,7-1.05c.13-.15.27-.3.41-.44l1.76-1.76A6.44,6.44,0,0,0,62.65,0ZM78.24,11.39l0,0-4.06,4.06a11.17,11.17,0,0,1,8,2.86,3.56,3.56,0,0,0-1.06-6.95ZM57.05,28.5l0,0,4.06-4.07a11.14,11.14,0,0,1-8-2.85,3.56,3.56,0,0,0,1.06,7Zm-4.07-7-.33-.32h0ZM72.65,39.89a6.45,6.45,0,0,1-5.57-3.2l1.76-1.75c.14-.15.28-.29.41-.44a3.56,3.56,0,0,0,7-1.06v-2.9a6.44,6.44,0,0,0,2.89,1.65v1.25A6.44,6.44,0,0,1,72.65,39.89ZM76.17,4.35a3.55,3.55,0,0,0-5,0L68.5,7a8.32,8.32,0,0,0-.79,10.85l8.46-8.46A3.55,3.55,0,0,0,76.17,4.35Zm7.07,24.12a3.55,3.55,0,0,0,0-5L80.6,20.8A8.33,8.33,0,0,0,69.75,20l8.46,8.47A3.57,3.57,0,0,0,83.24,28.47ZM64.15,35.54a3.56,3.56,0,0,1-5-5l8.46-8.46a8.31,8.31,0,0,1-.79,10.84ZM52.05,11.42a3.57,3.57,0,0,0,0,5l2.65,2.64a8.31,8.31,0,0,0,10.84.79l-8.46-8.46A3.55,3.55,0,0,0,52.05,11.42Z" fill="#2b2e3a" fill-rule="evenodd"/><path d="M0,13H3.16v9.82H8.59v2.66H0Z" fill="#2b2e3a"/><path d="M14.33,25.78a6.44,6.44,0,0,1-2.79-.57A4.58,4.58,0,0,1,9.68,23.6,4.47,4.47,0,0,1,9,21.23a4.41,4.41,0,0,1,.64-2.36,4.51,4.51,0,0,1,1.86-1.61,6.29,6.29,0,0,1,2.79-.58,6.22,6.22,0,0,1,2.78.58A4.33,4.33,0,0,1,19,18.87a4.26,4.26,0,0,1,.66,2.36A4.31,4.31,0,0,1,19,23.6a4.4,4.4,0,0,1-1.84,1.61A6.36,6.36,0,0,1,14.33,25.78Zm0-2.44a2,2,0,0,0,1.5-.56,2.1,2.1,0,0,0,.57-1.55,2,2,0,0,0-.57-1.54,2,2,0,0,0-1.5-.57,1.94,1.94,0,0,0-2.07,2.11,2.13,2.13,0,0,0,.55,1.55A2.09,2.09,0,0,0,14.33,23.34Z" fill="#2b2e3a"/><path d="M25.52,29.62a9.47,9.47,0,0,1-1.74-.16A7.25,7.25,0,0,1,22.3,29V26.85a8,8,0,0,0,3.22.61,2.71,2.71,0,0,0,1.87-.53A2.05,2.05,0,0,0,28,25.35v-.51a3.64,3.64,0,0,1-1.28.69,5,5,0,0,1-1.61.25,4.86,4.86,0,0,1-2.39-.57,4.07,4.07,0,0,1-1.63-1.61,5.25,5.25,0,0,1,0-4.76,3.91,3.91,0,0,1,1.61-1.59,4.83,4.83,0,0,1,2.37-.57,4.26,4.26,0,0,1,3,1.12v-.86h3v8a4.4,4.4,0,0,1-1.37,3.46A6.18,6.18,0,0,1,25.52,29.62Zm.35-6.27A2.33,2.33,0,0,0,27.18,23a2,2,0,0,0,.8-1v-1.5a2,2,0,0,0-.82-1,2.3,2.3,0,0,0-1.29-.38,2.13,2.13,0,0,0-1.55.57,2,2,0,0,0-.59,1.52,2,2,0,0,0,2.14,2.14Z" fill="#2b2e3a"/><path d="M37.21,25.78a6.44,6.44,0,0,1-2.79-.57,4.2,4.2,0,0,1-2.5-4,4.2,4.2,0,0,1,2.5-4,7,7,0,0,1,5.57,0,4.33,4.33,0,0,1,1.84,1.61,4.26,4.26,0,0,1,.66,2.36,4.31,4.31,0,0,1-.66,2.37A4.4,4.4,0,0,1,40,25.21,6.39,6.39,0,0,1,37.21,25.78Zm0-2.44a2,2,0,0,0,1.5-.56,2.1,2.1,0,0,0,.57-1.55,2,2,0,0,0-.57-1.54,2,2,0,0,0-1.5-.57,1.95,1.95,0,0,0-2.08,2.11,2.13,2.13,0,0,0,.56,1.55A2.09,2.09,0,0,0,37.21,23.34Z" fill="#2b2e3a"/><path d="M92.9,13h3.16V25.51H92.9Z" fill="#2b2e3a"/><path d="M97.66,16.94h3v.86a4.24,4.24,0,0,1,3-1.12,4.87,4.87,0,0,1,2.38.57,3.89,3.89,0,0,1,1.6,1.59,4.75,4.75,0,0,1,.58,2.37,4.94,4.94,0,0,1-.58,2.39,4,4,0,0,1-1.6,1.61,4.79,4.79,0,0,1-2.38.57,5,5,0,0,1-1.64-.27,3.62,3.62,0,0,1-1.29-.69v4.61H97.66Zm5.25,6.4a2.1,2.1,0,0,0,1.55-.58,2,2,0,0,0,.59-1.55,2,2,0,0,0-.59-1.53,2.1,2.1,0,0,0-1.55-.58,2.32,2.32,0,0,0-1.29.38,2,2,0,0,0-.82,1V22a2.11,2.11,0,0,0,.82,1A2.39,2.39,0,0,0,102.91,23.34Z" fill="#2b2e3a"/><path d="M113,25.78a11.77,11.77,0,0,1-2.16-.21A5.62,5.62,0,0,1,109,25V22.69a7.43,7.43,0,0,0,1.75.72,7.62,7.62,0,0,0,1.9.27,3.34,3.34,0,0,0,.91-.09.35.35,0,0,0,.28-.36.38.38,0,0,0-.19-.34,2.14,2.14,0,0,0-.68-.29l-1.13-.34a8.75,8.75,0,0,1-1.71-.66,2.27,2.27,0,0,1-.93-.85,2.59,2.59,0,0,1-.3-1.31A2.26,2.26,0,0,1,110,17.37a5.64,5.64,0,0,1,3-.69,10.37,10.37,0,0,1,2,.19,4.7,4.7,0,0,1,1.55.52v2.27a4.49,4.49,0,0,0-1.42-.59,6.29,6.29,0,0,0-1.65-.23,2.9,2.9,0,0,0-.94.12c-.23.07-.34.2-.34.39s.11.32.34.41a7.9,7.9,0,0,0,1.21.36l.48.13a7,7,0,0,1,1.77.68,2.14,2.14,0,0,1,.88.89,2.8,2.8,0,0,1,.26,1.28,2.26,2.26,0,0,1-1.07,2A5.51,5.51,0,0,1,113,25.78Z" fill="#2b2e3a"/><path d="M121.81,25.78a3.39,3.39,0,0,1-2.66-1,3.71,3.71,0,0,1-.88-2.59V16.94h3.14v4.91c0,1,.45,1.49,1.34,1.49a2.17,2.17,0,0,0,1.93-1.13V16.94h3.14v8.57h-3v-.92a3.62,3.62,0,0,1-1.34.89A4.54,4.54,0,0,1,121.81,25.78Z" fill="#2b2e3a"/><path d="M129.43,16.94h2.91v.93a3.67,3.67,0,0,1,1.24-.87,3.37,3.37,0,0,1,1.48-.32,3.46,3.46,0,0,1,1.53.28,2.25,2.25,0,0,1,.95.86,3.74,3.74,0,0,1,1.3-.84,4.28,4.28,0,0,1,1.56-.3,3,3,0,0,1,2.41.87,3.82,3.82,0,0,1,.71,2.48v5.48h-3v-5a1.62,1.62,0,0,0-.27-1,1.09,1.09,0,0,0-.89-.32,1.65,1.65,0,0,0-1.3.57c0,.21,0,.52,0,.93v4.89h-3V20.35a1.45,1.45,0,0,0-.24-.94,1,1,0,0,0-.82-.29,1.87,1.87,0,0,0-1.57,1v5.37h-3Z" fill="#2b2e3a"/></g></g></svg>