<?xml version="1.0" standalone="no"?>
<!DOCTYPE svg PUBLIC "-//W3C//DTD SVG 20010904//EN"
 "http://www.w3.org/TR/2001/REC-SVG-20010904/DTD/svg10.dtd">
<svg version="1.0" xmlns="http://www.w3.org/2000/svg"
 width="626.000000pt" height="626.000000pt" viewBox="0 0 626.000000 626.000000"
 preserveAspectRatio="xMidYMid meet">
<metadata>
Created by potrace 1.11, written by Peter Selinger 2001-2013
</metadata>
<g transform="translate(0.000000,626.000000) scale(0.100000,-0.100000)"
fill="#000000" stroke="none">
<path d="M2220 6248 c-79 -9 -216 -48 -296 -83 -31 -14 -94 -50 -138 -79 -237
-159 -384 -385 -441 -681 -3 -16 -8 -102 -11 -190 -3 -88 -7 -161 -8 -162 -1
-2 -16 1 -34 6 -73 21 -229 29 -333 16 -411 -49 -756 -351 -860 -750 -20 -75
-23 -115 -24 -245 0 -174 4 -201 45 -327 50 -155 127 -276 270 -423 55 -57
100 -107 100 -110 0 -4 -26 -24 -57 -45 -73 -49 -198 -173 -250 -250 -75 -111
-143 -268 -160 -370 -3 -16 -8 -49 -12 -72 -8 -40 -6 -253 3 -303 6 -40 36
-148 48 -178 91 -226 210 -376 393 -496 100 -67 169 -98 280 -131 101 -29 170
-37 345 -40 102 -1 124 -4 122 -16 -32 -129 -34 -360 -4 -454 3 -11 7 -24 8
-30 20 -106 105 -277 187 -381 151 -190 361 -316 612 -370 52 -11 267 -13 335
-3 140 20 319 94 436 180 33 23 61 45 64 48 3 3 49 48 102 100 l96 93 38 -58
c83 -126 241 -262 390 -337 50 -25 159 -65 199 -73 11 -2 31 -6 45 -9 140 -32
332 -24 490 21 182 52 402 202 507 347 21 29 40 54 43 57 21 20 101 184 120
246 35 116 48 205 49 354 1 85 3 155 4 157 1 1 20 -2 42 -7 146 -34 332 -27
484 16 529 152 840 687 707 1216 -48 193 -130 331 -295 501 -87 89 -103 110
-90 118 38 21 144 105 186 148 140 142 261 373 279 536 3 28 8 53 10 57 7 10
5 214 -1 266 -10 73 -54 213 -96 299 -98 204 -279 381 -484 474 -158 71 -252
90 -475 93 -153 3 -141 -7 -122 101 18 105 8 296 -22 409 -77 287 -267 520
-531 650 -159 78 -260 101 -455 100 -291 0 -505 -93 -737 -320 l-106 -104 -43
62 c-23 34 -73 93 -111 131 -221 224 -529 332 -843 295z"/>
</g>
</svg>
